<?xml version="1.0" encoding="UTF-8"?>
<svg id="Layer_1" data-name="Layer 1" xmlns="http://www.w3.org/2000/svg" width="3.169in" height="2.702in" viewBox="0 0 228.18 194.576">
  <path d="M223.592,146.011c-3.099-3.806-6.271-.355-9.841-4.936-1.751-2.246-4.994-1.802-5.358-.591-.084.279.032.997.254,1.257l3.445,4.028c1.479,1.73,4.174,2.414,3.637,7.913-.35,3.579-2.698,3.96-4.647,6.44-1.042,1.326-2.219,2.345-3.51,3.435-.834.704-1.511,1.647-2.262,2.472-2.632,2.89-6.32.666-8.777,3.922-3.252,4.31-6.771,1.155-9.692,4.894-1.046,1.339-2.463,2.301-4.219,2.474-1.915.189-3.791.189-5.73.2-5.251.032-3.824,4.73-10.162,4.749l-18.995.057c-4.501.013-3.685,4.751-9.814,4.751h-47.619c-6.255.002-5.294-4.735-9.951-4.753l-14.065-.055c-6.387-.025-5.007-4.68-10.114-4.745-2.062-.026-4.05.004-6.071-.246-1.625-.201-2.958-1.144-3.934-2.383-2.996-3.804-6.519-.702-9.578-4.804-.769-1.032-1.707-1.9-2.728-2.684-1.268-.975-2.09-2.377-3.272-3.427-1.742-1.548-3.257-3.061-4.804-4.804-1.049-1.182-2.456-2.003-3.425-3.273-.816-1.07-1.724-1.988-2.783-2.816-1.266-.99-2.141-2.33-2.319-3.99-.209-1.957-.203-3.917-.217-5.9-.033-4.577-4.054-4.189-4.552-8.334-.317-2.64-.311-5.289-.014-7.932.462-4.111,4.522-4.016,4.554-8.124l.072-9.419c.018-2.39.83-4.396,2.717-5.807,3.522-2.633.526-6.362,4.799-9.595,3.513-2.658.579-6.448,4.724-9.489,1.067-.783,1.798-1.938,2.752-2.839l3.338-3.149c1.652-1.558,3.07-3.139,4.674-4.751l4.876-4.897,4.717-4.699c1.665-1.658,3.133-3.305,4.93-4.854,1.167-1.006,1.937-2.415,3.192-3.358,1.01-.759,1.956-1.621,2.701-2.635,3.053-4.153,6.622-1.15,9.488-4.717,1.976-2.46,3.354-2.753,4.908-4.878,3.052-4.174,6.778-1.13,9.581-4.821,3.153-4.151,6.796-1.114,9.596-4.799,3.159-4.157,6.698-1.087,9.6-4.796,1.094-1.398,2.585-2.362,4.412-2.504,1.878-.146,3.719-.153,5.617-.177,5.138-.063,3.766-4.682,10.009-4.732l9.502-.076c4.232-.034,3.979-4.441,8.786-4.65,3.79-.165,7.57-.18,11.356.009,1.874.094,3.44.982,4.534,2.408.85,1.108,1.822,1.975,2.893,2.862,2.099,1.737,2.236,2.812,4.578,4.611,1.347,1.035,2.216,2.463,2.373,4.208.178,1.988.171,3.959.158,5.988-.009,1.563-.173,5.84,1.296,6.487.32.141,1.1-.017,1.378-.249l2.969-2.465c4.128-3.427-.696-10.032,4.498-14.108,3.756-2.948.55-6.349,4.894-9.701,1.236-.954,1.961-2.373,2.01-3.953.274-8.923-.536-6.457-4.646-11.292C179.296.777,177.971-.003,176.3,0l-14.347.027c-1.997.004-3.313,1.369-3.542,3.192-.302,2.397-.566,5.082-3.354,5.878-.946.27-1.988.449-3.019.452l-18.698.048c-4.523.011-3.577,4.689-9.782,4.736l-9.416.071c-4.101.031-4.03,4.098-8.124,4.559-4.602.518-8.004-.661-10.236,2.25-3.289,4.29-6.92,1.259-9.599,4.797-3.249,4.292-6.711,1.199-9.602,4.802-1.981,2.468-3.291,2.687-4.896,4.862-2.692,3.647-6.006,1.886-8.282,3.604-.885.668-1.54,1.532-2.297,2.347-.847.912-2.031,1.573-2.822,2.528-1.439,1.739-2.926,3.14-4.608,4.623-1.143,1.008-1.932,2.387-3.146,3.341-1.048.824-2.054,1.682-2.839,2.756-3.042,4.157-6.602,1.141-9.497,4.728-.761.943-1.647,1.82-2.584,2.58-3.598,2.92-.507,6.466-4.824,9.579-.715.516-1.4,1.209-1.94,1.901-1.121,1.439-2.577,2.367-3.785,3.71l-2.621,2.912c-.728.809-1.663,1.395-2.324,2.272-1.753,2.323.025,5.621-3.622,8.31-2.147,1.584-2.407,2.922-4.874,4.906-3.594,2.891-.478,6.272-4.788,9.591-1.35,1.04-2.003,2.564-2.024,4.271-.023,1.889-.034,3.744-.174,5.61C4.296,119.749,0,119.501,0,123.879v23.625c.002,1.681.836,3.105,2.076,4.092,3.734,2.972,1.885,6.008,3.605,8.326.675.91,1.634,1.52,2.387,2.359l2.555,2.847c1.011,1.126,2.309,1.902,3.256,3.082.844,1.052,1.712,1.95,2.77,2.787,1.228.972,2.028,2.304,3.192,3.349l2.846,2.555c.838.753,1.45,1.711,2.358,2.387,2.275,1.692,5.485-.073,8.317,3.605,2.829,3.674,6.203.458,9.696,4.892.909,1.154,2.308,1.947,3.831,1.96l9.645.082c5.965.051,5.153,4.749,9.738,4.749h90.757c4.748,0,3.74-4.703,9.888-4.752l9.498-.076c4.152-.033,4.004-4.279,8.464-4.613,1.866-.14,3.722-.153,5.61-.175,1.709-.02,3.23-.674,4.272-2.024,3.347-4.339,6.849-1.169,9.684-4.888,2.756-3.616,6.02-1.852,8.326-3.598.877-.664,1.461-1.595,2.272-2.324l2.912-2.621c1.341-1.207,2.269-2.67,3.709-3.781,1.742-1.344,2.026-2.526,4.566-4.658,1.169-.981,1.867-2.288,1.912-3.872.261-9.23-.736-6.5-4.549-11.182Z" fill="#fff"/>
  <path d="M188.705,157.838c-.637-6.018.922-9.02-2.976-12.217-.965-.792-1.759-2.038-1.789-3.334-.086-3.707,4.539-3.663,4.525-8.955-.006-2.357.004-4.719.256-7.07.351-3.279,3.362-4.577,2.922-6.254-.365-1.392-3.879-2.003-5.968.347-1.393,1.567-3.063,2.69-4.519,4.203l-2.701,2.805c-.919.955-2.262,1.33-3.605.957-2.523-.7-2.919-3.889-3.169-6.06-.278-2.415-1.929-3.757-4.254-3.768-2.335-.011-4.194,1.409-4.29,3.909l-.1,2.62-.065,1.683v1.665s-.114,2.936-.114,2.936l.035,9.451c.006,2.368-1.194,5.326-4.034,5.238-.469-.015-1.688-.116-2.328-.281-.18-.046-.343-.141-.48-.266-.028-.026-.056-.051-.083-.077-1.294-1.208-2.509-2.757-2.491-6.197.037-7.264,5.435-5.78,5.513-11.208.052-3.638-2.583-4.419-5.44-7.795-1.205-1.424-2.776-2.334-4.733-2.327l-11.327.038c-.688.002-1.327.155-1.892.427-.343.166-.658.374-.938.624-.035.031-.067.063-.098.097-.26.282-1.477,1.651-1.621,2.776-.292,2.287-.65,5.708-3.471,6.248-1.992.381-3.179-.786-4.433-2.167-.621-.683-1.259-1.419-2.019-2.045-1.379-1.136-2.61-2.254-3.753-3.613-1.142-1.357-2.692-2.168-4.536-2.173l-5.119-.013c-.37,0-.711.027-1.03.076-.432.067-.822.174-1.179.312-2.848,1.105-3.55,4.201-6.517,4.131-3.218-.075-3.822-3.861-7.338-4.366-.483-.069-1.02-.078-1.628-.006-.021.002-.04.007-.061.01-1.912.253-3.434,1.6-3.509,3.666l-.203,5.579c-.092,2.536-.44,6.178-3.873,6.209-1.404.013-2.665-.812-3.256-2.226-1.331-3.186-.035-5.332-3.02-7.869-1.192-1.013-2.31-2.125-3.323-3.327-1.39-1.65-3.317-2.381-5.473-1.966-1.665.321-2.942,1.578-3.125,3.373-.225,2.211-.232,4.411-.27,6.681-.043,2.559-1.192,5.431-4.033,5.331-1.252-.044-2.38-.814-2.991-2.069-.721-1.48-.752-3.126-.76-4.813-.007-1.634-.087-3.294-.209-4.864-.187-2.418-1.966-3.731-4.231-3.75-2.398-.02-4.32,1.528-4.322,4.16l-.021,22.182c-.005,5.299,5.301,4.3,5.475,11.059l.156,6.045c.059,2.274,1.616,3.891,3.855,4.045,2.095.144,4.182.142,6.281.018,6.46-.379,2.819-9.099,4.914-13.462.611-1.272,1.745-2.046,3-2.081,2.813-.078,3.973,2.679,4.031,5.215.053,2.328.032,4.583.292,6.856.231,2.017,1.819,3.31,3.783,3.452,2.101.152,4.183.141,6.282.021,2.222-.127,3.876-1.645,3.965-3.911l.168-4.27.049-18.881c.002-.907.155-1.844.478-2.669.334-.852.851-1.586,1.578-2.042.467-.293,1.019-.473,1.665-.497,2.839-.102,4.053,2.851,4.059,5.219l.002.945.03,13.305.133,3.061c.155,3.568,2.818,4.373,5.668,7.654.628.723,1.369,1.205,2.192,1.497.713.253,1.487.364,2.311.344,2.251-.053,4.432.037,6.691.209,1.86.141,3.688.226,5.496-.14,1.44-.292,2.376-1.183,3.245-2.077,1.109-1.142,2.112-2.29,3.918-2.207,1.409.064,2.649.972,3.51,2.037.495.613,1.068,1.113,1.693,1.499.078.048.149.106.213.172.349.356.768.637,1.228.848.633.29,1.345.443,2.08.435,2.301-.025,4.095-1.362,4.289-3.748.291-3.57.235-7.143.214-10.791-.017-2.816.464-6.949,4.04-6.885,3.725.067,3.929,4.298,3.913,7.11-.019,3.537-.059,6.987.188,10.442.176,2.464,1.983,3.876,4.515,3.863.455-.002,1.102-.006,1.13-.006.384-.006,4.425-.047,7.068-.061,1.646-.009,3.197-.008,3.988.019,2.352.079,4.344-1.43,4.651-3.844.32-2.52.758-6.32,4.155-6.263,3.385.057,3.699,3.927,4.054,6.36.292,1.995,1.629,3.359,3.642,3.564,1.718.175,7.738.475,8.155-1.599.331-1.649-2.597-2.91-2.978-6.514ZM115.987,156.542c0,1.421-.586,2.929-1.446,3.997-1.25,1.551-3.204,1.663-4.592.373-1.007-.936-1.705-2.485-1.707-4.052l-.026-23.838c-.003-2.247,1.148-5.106,3.721-5.205,2.839-.109,4.063,2.872,4.062,5.231l-.012,23.494ZM146.173,134.737c-2.199,0-3.981-1.782-3.981-3.981s1.782-3.981,3.981-3.981,3.981,1.782,3.981,3.981-1.782,3.981-3.981,3.981Z" fill="#fff"/>
  <path d="M171.806,60.401c-4.72-.443-7.026.581-13.5-.006-1.827-.166-3.621-.184-5.399.1-.363.058-.686.151-.976.272,0,0-.237.067-.348.167-1.265.695-1.772,2.019-1.975,3.46-.035.163-.06.322-.075.474-.215,2.287-.264,21.415-1.285,23.265-.208.377-.546.801-.944,1.137-.722.611-2.827.566-3.524-.074-1.624-1.493-3.684-2.772-3.663-7.298.033-7.328,5.529-5.895,5.578-11.346.034-3.711-2.569-4.434-5.559-7.951-1.167-1.373-2.734-2.291-4.639-2.288l-11.446.018c-2.506.004-4.396,1.766-4.395,4.423v1.683c-.175,1.899-.453,3.748-2.728,4.184-1.828.35-3.094-1.358-4.26-2.709-.492-.609-3.874-4.018-4.91-5.237-1.126-1.325-2.589-2.185-4.402-2.266-2.147-.097-4.248-.106-6.404.051-1,.073-1.943.471-2.643,1.118-1.226,1.073-2.136,2.381-4.436,2.327-2.499-.058-3.812-1.704-5.921-2.674-.888-.601-2.053-.746-3.113-.712-2.241.071-3.724,1.565-4.006,3.8-.314,2.494-.618,6.434-4.25,6.379-3.398-.051-3.846-3.886-4.167-6.459-.314-2.52-2.21-3.841-4.642-3.746-2.23.087-3.955,1.463-4.119,3.86-.142,2.079-.146,4.231-.042,6.377.259,5.299,5.604,4.161,5.635,11.463l.097,22.92c.011,2.649,1.949,4.192,4.357,4.218,2.61.027,4.458-1.636,4.484-4.344l.107-11.512c.064-6.875,5.043-6.023,5.605-10.848.046-.398.174-.787.403-1.116.242-.347.54-.583.997-.87.467-.293,1.019-.473,1.665-.497,1.219-.044,3.014.403,3.667,1.198.427.52.637,1.186.638,1.859l.028,21.911c.003,2.641,1.971,4.206,4.349,4.217,2.443.011,4.174-1.353,4.475-3.821.318-2.609.824-6.532,4.369-6.385,1.358.056,2.632.931,3.19,2.387,1.159,3.024-.595,7.102,4.135,7.693,1.454.182,1.847.273,3.315.155.386-.031.672-.117.892-.252,1.061-.521,2.667-3.316,4.382-3.394,1.032-.047,2.511.047,3.412,1.101.142.167.267.302.385.419.812,1.373,2.446,2.072,4.054,2.021,2.342-.075,4.045-1.476,4.223-3.877.267-3.579.217-7.171.194-10.839-.018-2.933.527-7.109,4.2-6.968,3.702.142,3.871,4.43,3.856,7.196-.019,3.629-.077,7.173.225,10.735.21,2.484,2.175,3.87,4.674,3.741.875-.045,1.658-.288,2.301-.7.121-.044.252-.146.392-.287.362-.303.584-.661.888-1.097.59-.766,1.161-1.638,1.883-1.682.758-.047,1.8.071,2.462,1.126.35.557.662.938,1.065,1.289.806.927,2.022,1.462,3.44,1.46l17.27-.018c2.57-.003,4.326-1.91,4.327-4.433l.004-40.057c0-2.456-1.57-4.227-3.851-4.441ZM100.353,88.849c-2.199,0-3.981-1.782-3.981-3.981s1.782-3.981,3.981-3.981,3.981,1.782,3.981,3.981-1.783,3.981-3.981,3.981ZM132.757,77.339c-2.199,0-3.981-1.782-3.981-3.981s1.783-3.981,3.981-3.981,3.981,1.782,3.981,3.981-1.783,3.981-3.981,3.981ZM161.36,99.312c-2.881.108-4.167-2.973-4.167-5.305l.007-24.152c0-1.603.638-3.242,1.598-4.355,1.375-1.594,3.525-1.539,4.861.061.954,1.142,1.546,2.772,1.546,4.416l.009,23.85c.001,2.379-1.16,5.384-3.855,5.485Z" fill="#fff"/>
</svg>